<svg xmlns="http://www.w3.org/2000/svg"
  height="100"
  width="100"
  viewBox="0 0 265 265">
  <g>
    <path
       fill="hsl(214, 27%, 75%)"
       d="m 110.77163,207.3604 c 0.58632,-15.21778 -4.27093,0.44618 -2.63863,-8.21304 0.41531,-1.98406 0.3741,-2.01142 -2.2513,-1.4938 -2.85852,0.56356 -4.80448,-1.2175 -4.80448,-4.39737 0,-1.14885 -0.59192,-1.37576 -3.588529,-1.37576 -4.237228,0 -9.581033,-7.60729 -8.685624,-12.36461 0.502745,-2.67112 9.358742,-12.80147 15.155303,-17.33609 5.46989,-4.27906 5.44565,-14.23074 -0.0512,-21.00816 -1.47575,-1.81954 -2.68083,-5.35219 -3.73538,-10.95004 -0.752798,-3.99596 -0.752798,-3.99596 -3.405885,-2.91414 -3.160724,1.28882 -5.401546,1.40338 -5.982809,0.30588 -0.268149,-0.50631 -1.222834,-0.22262 -2.604695,0.77399 -2.739932,1.97607 -5.131569,2.00606 -6.622925,0.083 -1.13796,-1.46735 -1.202166,-1.46141 -4.181215,0.387 -4.681681,2.90485 -8.797353,1.78869 -8.797353,-2.38581 0,-1.85327 0,-1.85327 -2.818902,-0.36011 -4.11418,2.17926 -8.942491,2.05456 -9.843966,-0.25424 -0.601363,-1.54021 -1.169209,-1.77602 -4.193593,-1.74151 -5.034073,0.0575 -7.814892,-4.50384 -4.865653,-7.98096 0.667277,-0.78673 0.464689,-0.81694 -1.038095,-0.1548 -6.078037,2.67802 -13.135261,-0.085 -11.16871,-4.37256 0.571417,-1.24587 0.347508,-1.35704 -2.247224,-1.11578 -3.904927,0.36308 -7.599726,-1.11343 -7.599726,-3.03699 0,-1.1551 -0.482221,-1.49628 -2.155631,-1.52514 -5.999436,-0.10347 -9.287992,-5.42024 -5.163134,-8.347483 2.05204,-1.456251 2.05204,-1.456251 -1.238676,-1.91106 C 10.127082,94.825469 5.0712105,90.216863 8.5509254,88.658653 10.316605,87.867984 9.6120584,86.826762 6.9788909,86.335406 2.1763849,85.439252 1.6564793,81.623039 6.1327961,80.124928 8.7621032,79.244967 8.7908739,78.429468 6.2138097,77.828015 1.0767565,76.629087 3.2871302,73.279848 10.540722,71.271729 15.846887,69.802743 15.846887,69.802743 12.416015,69.244265 6.662097,68.307643 5.1264372,65.639134 9.7192386,64.558087 10.900654,64.280007 14.255042,63.23181 17.17343,62.228762 c 17.53655,-6.027299 47.137581,-8.941325 55.807772,-5.493907 3.120533,1.240776 3.120533,1.240776 1.53594,-0.727524 -1.245964,-1.547686 -1.433299,-2.250313 -0.876611,-3.288011 1.809985,-3.37394 8.455903,-0.780867 16.566774,6.463946 2.594342,2.317328 5.1492,4.213323 5.677443,4.213323 0.929306,0 5.622732,4.25335 10.590652,9.597621 1.49386,1.60703 2.80591,4.033449 3.44334,6.36785 2.10185,7.697367 3.63086,12.087517 4.91676,14.117149 0.72683,1.147205 1.94992,3.523214 2.71795,5.280032 1.21371,2.776229 1.16112,2.953879 3.62662,3.439549 2.9798,0.58701 9.66455,4.05496 12.8431,6.66404 6.32555,5.19227 7.08809,4.83901 14.94606,-6.9241 10.62037,-15.898342 13.92105,-20.099481 18.07088,-23.000801 2.08284,-1.456196 5.03152,-2.9124 6.55264,-3.236002 1.5211,-0.323604 4.84849,-1.309041 7.39419,-2.189861 7.99611,-2.766681 16.96909,-1.682236 20.83161,2.517642 0.95368,1.036955 2.92783,2.112104 4.38702,2.389217 2.56072,0.486302 5.23858,1.375209 20.22976,6.715175 14.43537,5.141984 28.05291,15.28769 34.43214,25.65355 2.50332,4.06775 2.22834,5.52517 -0.96049,5.09075 -2.18829,-0.29812 -2.18829,-0.29812 -0.17559,2.66735 2.79838,4.1231 1.39665,6.25605 -3.85418,5.86469 -3.28983,-0.24518 -3.38559,-0.19653 -2.50262,1.27177 1.89002,3.14289 -1.64629,6.60285 -5.57309,5.45275 -0.91293,-0.26739 -3.09464,-0.057 -4.84821,0.46741 -2.21771,0.66327 -4.15068,0.73521 -6.34951,0.23633 -2.86877,-0.65087 -3.30414,-0.54945 -4.70673,1.09648 -1.28974,1.5135 -2.08929,1.76971 -4.83058,1.54801 -2.27325,-0.18387 -3.28492,0.0262 -3.28463,0.68191 6.2e-4,1.45652 -3.61962,3.30937 -6.46612,3.30937 -2.30635,0 -2.63233,0.25674 -3.37693,2.65961 -0.62261,2.00924 -1.41103,2.88564 -3.22416,3.58393 -1.32002,0.50837 -3.0238,1.74333 -3.78617,2.74433 -3.37625,4.43302 -10.27589,2.96239 -14.751,-3.1441 -2.55365,-3.48461 -2.55365,-3.48461 -5.46589,-0.7942 -1.60175,1.47973 -3.22018,2.69041 -3.59653,2.69041 -0.37636,0 -2.4001,1.74151 -4.49719,3.87001 -2.0971,2.12849 -4.14544,3.86998 -4.55188,3.86998 -0.40642,0 -1.48445,0.56999 -2.39558,1.26667 -1.2451,0.95202 -2.55737,1.15818 -5.28283,0.82993 -3.14439,-0.37871 -3.62621,-0.25815 -3.62621,0.90738 0,0.73929 -0.41808,2.01134 -0.92906,2.8268 -0.55724,0.88931 -0.79241,2.46519 -0.58763,3.93777 0.38556,2.77264 -1.687,4.33045 -3.46739,2.60621 -3.19081,-3.09023 -3.99069,6.92795 -0.98898,12.38663 3.7752,6.86529 4.03695,13.07738 0.60459,14.34863 -0.71878,0.26621 -2.06128,1.36438 -2.98334,2.44037 -1.16604,1.36071 -2.16927,1.84642 -3.29504,1.59528 -1.05591,-0.23554 -1.61857,-0.005 -1.61857,0.66245 0,1.8549 -2.8253,4.17981 -5.07943,4.17981 -1.19691,0 -3.2657,0.71411 -4.59733,1.58688 -1.33161,0.87281 -2.90766,1.47507 -3.50233,1.3384 -0.70922,-0.163 -1.30945,0.55597 -1.7445,2.08961 -0.76859,2.70936 -1.83034,2.82451 -2.35427,0.2553 -0.28748,-1.40975 -1.02704,-1.47994 -2.43993,-1.28361 -0.49347,-0.71002 -2.23739,-1.57089 -2.21675,-0.69691 0.0539,2.46134 -2.56413,3.22348 -2.65882,0.774 -0.0309,-0.79885 -0.18888,-0.96014 -0.38514,-0.39319 -0.56027,1.61851 -2.87885,-0.38759 -2.87885,-2.49084 0,-2.03744 -0.98968,-3.21564 -1.65149,-1.96606 -0.22914,0.43264 -1.00644,0.78662 -1.72734,0.78662 -1.88975,0 -4.58042,2.26997 -4.58042,3.86425 0,0.75031 -0.44443,1.79461 -0.98761,2.32066 -1.675,2.0611 -1.5112,1.28326 -1.92009,-0.76708 z"
    />
    <path
       fill="hsl(18, 33%, 6%)"
       d="m 111.62364,138.14203 c -1.71102,-3.91839 -0.61369,-2.97946 -2.14401,-6.07012 -0.57939,-1.07991 -1.17596,-2.52522 -1.67988,-3.77198 -2.16053,-2.91745 -2.15139,-4.28972 -2.30753,-5.14594 -0.38988,-2.12087 0.32413,-4.77566 1.88354,-4.80834 2.60137,1.45608 2.9964,2.28922 2.89446,6.06111 0.0676,1.71166 -0.49581,3.44367 0.29615,5.6675 0.54254,0.83618 0.69008,2.03779 1.1171,2.96889 1.09087,2.3786 3.7459,-1.79059 4.37315,-6.86718 0.66213,-5.35891 1.00927,-5.76687 5.01159,-5.88971 7.54564,-0.23159 7.86531,5.65634 0.46425,8.55102 -1.95941,0.59751 -1.63666,0.60638 -4.26059,1.03316 -4.25925,5.72585 -1.15772,4.28384 -0.50645,4.98125 0.7095,0.82794 -1.39313,4.63027 -2.68259,4.85112 -1.48744,-0.64032 -0.56781,0.69178 -2.45919,-1.56078 z"
    />
  </g>
</svg>